<?xml version="1.0" standalone="no"?>
<!DOCTYPE svg PUBLIC "-//W3C//DTD SVG 20010904//EN"
 "http://www.w3.org/TR/2001/REC-SVG-20010904/DTD/svg10.dtd">
<svg version="1.0" xmlns="http://www.w3.org/2000/svg"
 width="1796.000000pt" height="1243.000000pt" viewBox="0 0 1796.000000 1243.000000"
 preserveAspectRatio="xMidYMid meet">

<g transform="translate(0.000000,1243.000000) scale(0.100000,-0.100000)"
fill="#000000" stroke="none">
<path d="M6628 9913 l-38 -4 0 -2444 0 -2444 43 -6 c55 -8 2993 -2 3001 6 4 3
6 461 6 1016 0 555 2 1011 4 1014 2 2 87 3 189 1 l184 -3 66 -137 c36 -75 84
-176 106 -224 l40 -88 139 0 c76 0 142 3 145 7 4 3 3 11 -2 17 -4 6 -29 56
-54 111 -25 55 -71 154 -102 220 -116 244 -148 311 -165 350 -10 22 -63 135
-118 250 -54 116 -110 233 -122 260 -13 28 -55 118 -94 200 -39 83 -107 227
-151 322 -44 95 -84 174 -90 176 -5 2 -41 -11 -80 -30 -38 -19 -88 -40 -110
-47 l-40 -14 -3 -1570 -2 -1569 -349 -5 c-192 -2 -753 -2 -1248 0 l-898 5 2
2171 3 2171 775 0 776 0 0 -232 c0 -188 -2 -237 -15 -261 -8 -16 -72 -171
-141 -343 -69 -173 -132 -327 -139 -344 -8 -16 -28 -67 -46 -112 -17 -46 -35
-83 -38 -83 -6 0 -45 94 -89 214 -8 22 -23 60 -34 84 -11 24 -36 85 -55 135
-19 49 -42 106 -50 126 -21 48 -24 56 -87 211 l-54 135 -139 0 -139 0 -3
-1267 -2 -1268 162 0 161 0 -6 568 c-4 312 -9 722 -12 912 -6 394 -13 382 80
135 31 -82 67 -177 80 -210 13 -33 49 -127 80 -210 75 -199 73 -195 107 -195
24 0 31 7 50 48 24 54 19 40 93 237 31 83 88 230 126 328 38 98 69 185 69 193
0 8 5 14 10 14 7 0 9 -18 6 -47 -5 -44 -15 -1010 -17 -1548 l-1 -220 153 -3
152 -3 -7 1613 c-3 887 -9 1630 -13 1651 l-6 37 -1006 -2 c-553 -1 -1023 -3
-1043 -5z m3057 -2151 c22 -51 132 -283 163 -344 2 -5 -44 -8 -102 -8 l-106 0
0 210 c0 116 3 210 8 210 4 0 20 -31 37 -68z"/>
<path d="M10607 8823 c-4 -3 -7 -87 -7 -185 l0 -178 170 0 170 0 0 185 0 185
-163 0 c-90 0 -167 -3 -170 -7z"/>
<path d="M10605 8348 c-3 -7 -4 -407 -3 -888 l3 -875 168 -3 167 -2 -2 887 -3
888 -163 3 c-124 2 -164 0 -167 -10z"/>
<path d="M6910 4291 l0 -251 37 0 36 0 -6 208 -7 207 44 -105 c118 -289 128
-310 146 -310 16 0 76 128 181 385 4 11 8 -68 8 -182 l1 -203 30 0 30 0 0 250
0 250 -44 0 -44 0 -49 -117 c-27 -65 -63 -151 -79 -190 -27 -68 -43 -90 -44
-60 -1 6 -34 91 -74 187 l-74 175 -46 3 -46 3 0 -250z"/>
<path d="M7687 4528 c-3 -7 -48 -118 -101 -247 -53 -129 -96 -236 -96 -237 0
-2 15 -4 34 -4 32 0 35 3 63 73 l29 72 103 0 103 0 28 -70 c27 -68 29 -70 65
-73 28 -3 36 0 33 10 -3 7 -49 120 -103 251 -94 229 -98 237 -125 237 -15 0
-30 -6 -33 -12z m71 -177 c17 -48 32 -91 32 -95 0 -3 -33 -6 -74 -6 l-74 0 37
95 c20 52 38 95 41 95 3 0 20 -40 38 -89z"/>
<path d="M8020 4290 l0 -250 35 0 35 0 0 117 0 118 118 -118 c115 -114 118
-117 162 -117 l45 0 -125 125 -124 125 34 37 c19 21 70 75 113 119 42 45 77
84 77 88 0 3 -17 6 -38 6 -36 0 -45 -7 -150 -120 l-112 -120 0 120 0 120 -35
0 -35 0 0 -250z"/>
<path d="M8480 4290 l0 -250 35 0 35 0 0 250 0 250 -35 0 -35 0 0 -250z"/>
<path d="M8670 4291 l0 -251 36 0 36 0 -4 206 c-3 177 -1 201 10 172 7 -18 46
-111 85 -206 60 -144 75 -172 91 -170 15 2 38 49 100 196 l81 193 3 -196 2
-195 35 0 35 0 0 250 0 250 -48 0 -49 0 -79 -194 -80 -194 -80 191 -79 192
-48 3 -47 3 0 -250z"/>
<path d="M9447 4528 c-3 -7 -48 -118 -101 -247 -53 -129 -96 -236 -96 -237 0
-2 15 -4 34 -4 32 0 35 3 63 73 l29 72 103 0 103 0 28 -70 c27 -68 29 -70 65
-73 28 -3 36 0 33 10 -3 7 -49 120 -103 251 -94 229 -98 237 -125 237 -15 0
-30 -6 -33 -12z m71 -177 c17 -48 32 -91 32 -95 0 -3 -33 -6 -74 -6 l-74 0 37
95 c20 52 38 95 41 95 3 0 20 -40 38 -89z"/>
<path d="M6282 3625 c-130 -40 -201 -191 -158 -338 32 -109 100 -158 231 -165
97 -5 135 7 135 42 l0 25 -78 -6 c-96 -7 -140 6 -181 52 -95 109 -48 298 84
335 43 12 109 9 149 -6 15 -6 17 -2 14 27 -2 26 -9 35 -28 40 -41 11 -122 9
-168 -6z"/>
<path d="M10505 3622 c-70 -23 -139 -93 -159 -163 -20 -66 -20 -111 -1 -177
31 -104 101 -153 230 -160 44 -2 99 1 123 7 l42 12 0 124 0 125 -90 0 -90 0 0
-30 0 -30 60 0 61 0 -3 -72 -3 -73 -82 0 c-67 0 -87 4 -110 21 -68 51 -95 133
-73 225 26 107 130 165 255 142 61 -11 65 -9 65 23 0 18 -8 25 -37 33 -54 15
-130 12 -188 -7z"/>
<path d="M11978 3630 c-78 -23 -139 -79 -169 -155 -16 -42 -16 -163 0 -205 40
-99 104 -141 226 -148 98 -5 135 7 135 43 0 26 -1 26 -59 19 -164 -18 -242 43
-242 191 0 75 18 122 60 158 46 38 103 52 174 40 l58 -9 -3 30 c-2 22 -9 32
-28 37 -34 10 -119 9 -152 -1z"/>
<path d="M4075 3413 c-49 -120 -95 -233 -102 -251 l-14 -33 38 3 c36 3 38 5
66 76 l30 73 100 -3 101 -3 29 -72 c28 -71 30 -73 64 -73 42 0 49 -26 -72 267
-89 218 -94 228 -122 231 -28 3 -29 2 -118 -215z m158 20 l35 -93 -74 0 c-41
0 -74 4 -74 8 0 5 12 37 26 73 15 35 30 75 35 88 5 13 11 22 13 20 3 -2 20
-46 39 -96z"/>
<path d="M4490 3381 l0 -251 35 0 35 0 0 100 0 100 38 0 c35 -1 40 -5 111
-100 71 -97 74 -100 112 -100 21 0 39 2 39 4 0 2 -31 44 -68 93 -38 49 -72 94
-75 100 -4 7 12 20 38 33 105 51 107 184 4 245 -28 16 -56 21 -151 24 l-118 3
0 -251z m230 171 c33 -16 35 -20 35 -66 0 -66 -25 -85 -123 -93 l-72 -6 0 92
0 91 63 0 c39 0 75 -6 97 -18z"/>
<path d="M4900 3600 l0 -30 80 0 80 0 0 -220 0 -220 35 0 35 0 0 220 0 220 85
0 85 0 0 30 0 30 -200 0 -200 0 0 -30z"/>
<path d="M5370 3380 l0 -250 35 0 35 0 0 250 0 250 -35 0 -35 0 0 -250z"/>
<path d="M5560 3380 l0 -250 35 0 35 0 0 110 0 110 100 0 100 0 0 35 0 35
-100 0 -100 0 0 75 0 75 115 0 115 0 0 30 0 30 -150 0 -150 0 0 -250z"/>
<path d="M5940 3380 l0 -250 35 0 35 0 0 250 0 250 -35 0 -35 0 0 -250z"/>
<path d="M6580 3380 l0 -250 35 0 35 0 0 250 0 250 -35 0 -35 0 0 -250z"/>
<path d="M6917 3618 c-3 -7 -48 -118 -101 -247 -53 -129 -96 -236 -96 -237 0
-2 15 -4 34 -4 32 0 35 3 63 73 l29 72 103 0 103 0 28 -70 c27 -68 29 -70 65
-73 28 -3 36 0 33 10 -3 7 -49 120 -103 251 -94 229 -98 237 -125 237 -15 0
-30 -6 -33 -12z m71 -177 c17 -48 32 -91 32 -95 0 -3 -33 -6 -74 -6 l-74 0 37
95 c20 52 38 95 41 95 3 0 20 -40 38 -89z"/>
<path d="M7250 3380 l0 -250 155 0 155 0 0 30 0 30 -120 0 -120 0 0 220 0 220
-35 0 -35 0 0 -250z"/>
<path d="M7800 3380 l0 -250 35 0 35 0 0 250 0 250 -35 0 -35 0 0 -250z"/>
<path d="M7990 3380 l0 -250 36 0 35 0 -3 198 -3 198 139 -198 c134 -190 140
-198 172 -198 l34 0 0 250 0 250 -36 0 -36 0 4 -200 c2 -136 0 -196 -7 -186
-277 399 -267 386 -302 386 l-33 0 0 -250z"/>
<path d="M8470 3600 l0 -30 85 0 85 0 0 -220 0 -220 35 0 35 0 0 220 0 220 80
0 80 0 0 30 0 30 -200 0 -200 0 0 -30z"/>
<path d="M8950 3380 l0 -250 160 0 160 0 0 30 0 30 -125 0 -125 0 0 80 0 80
105 0 105 0 0 35 0 35 -105 0 -105 0 0 75 0 75 120 0 120 0 0 30 0 30 -155 0
-155 0 0 -250z"/>
<path d="M9370 3380 l0 -250 155 0 155 0 0 30 0 30 -120 0 -120 0 0 220 0 220
-35 0 -35 0 0 -250z"/>
<path d="M9760 3380 l0 -250 161 0 160 0 -3 28 -3 27 -122 3 -123 3 0 219 0
220 -35 0 -35 0 0 -250z"/>
<path d="M10160 3380 l0 -250 35 0 35 0 0 250 0 250 -35 0 -35 0 0 -250z"/>
<path d="M10860 3380 l0 -250 160 0 160 0 0 30 0 30 -125 0 -125 0 0 80 0 80
105 0 105 0 0 35 0 35 -105 0 -105 0 0 75 0 75 120 0 120 0 0 30 0 30 -155 0
-155 0 0 -250z"/>
<path d="M11280 3380 l0 -250 36 0 35 0 -3 198 -3 198 139 -198 c134 -190 140
-198 172 -198 l34 0 0 250 0 250 -36 0 -36 0 4 -200 c2 -136 0 -196 -7 -186
-277 399 -267 386 -302 386 l-33 0 0 -250z"/>
<path d="M12260 3380 l0 -250 166 0 165 0 -3 28 -3 27 -127 3 -128 3 0 79 0
79 108 3 107 3 0 30 0 30 -107 3 -108 3 0 74 0 75 120 0 120 0 0 30 0 30 -155
0 -155 0 0 -250z"/>
</g>
</svg>
